# xmcd CD database file generated by LOLA_Freedb v0.9beta0
# 
# Track frame offsets:
#      150
#      17418
#      39549
#      58248
#      79112
#      96026
#      113533
#      127617
#      145613
#      167657
#      192374
# 
# Disc length: 2851 seconds
# 
# Revision: 0 
# Processed by: cddbd v1.5.2PL0 Copyright (c) Steve Scherf et al.
# Submitted via: LOLA_Freedb v0.9beta0
# 
DISCID=7f0b210b
DTITLE=Jordan Walker - Empty Seat
DYEAR=2008
DGENRE=
TTITLE0=Jordan Walker - 287
TTITLE1=Jordan Walker - This Damn Song
TTITLE2=Jordan Walker - Swept Away
TTITLE3=Jordan Walker - Fast Cars and Prom Queens
TTITLE4=Jordan Walker - Empty Seat
TTITLE5=Jordan Walker - Greener On The Other Side
TTITLE6=Jordan Walker - Now That Your Gone
TTITLE7=Jordan Walker - Small Town Blues
TTITLE8=Jordan Walker - The Way I Feel
TTITLE9=Jordan Walker - Homecoming Without The Game
TTITLE10=Jordan Walker - Through The Hard Times
EXTD=
EXTT0=
EXTT1=
EXTT2=
EXTT3=
EXTT4=
EXTT5=
EXTT6=
EXTT7=
EXTT8=
EXTT9=
EXTT10=
PLAYORDER=
